<svg width="48" height="48" viewBox="0 0 48 48" fill="none" xmlns="http://www.w3.org/2000/svg">
<rect width="48" height="48" fill="#1E1E1E"/>
<g id="Zero-Touch -Apple Accounts para Empresas">
<rect width="1440" height="7632" transform="translate(-70 -1142)" fill="#05070F"/>
<g id="challenges">
<g id="Frame 58">
<g id="card ">
<rect x="-20" y="-20" width="433.333" height="168" rx="10" fill="#0E1423" fill-opacity="0.5"/>
<rect x="-19.5" y="-19.5" width="432.333" height="167" rx="9.5" stroke="url(#paint0_linear_0_1)" stroke-opacity="0.2"/>
<g id="solar:user-cross-rounded-outline">
<path id="Union" d="M22.5352 24.3721C25.2216 24.3721 27.7193 24.9197 29.6973 25.8662C29.7894 25.8623 29.8825 25.8604 29.9766 25.8604C31.1161 25.8605 32.239 26.1366 33.249 26.6641C34.259 27.1916 35.1262 27.9556 35.7773 28.8906C36.4285 29.8257 36.8448 30.9039 36.9893 32.0342C37.1337 33.1644 37.0025 34.3131 36.6074 35.3818C36.2123 36.4506 35.5647 37.4083 34.7197 38.1729C33.8749 38.9373 32.8576 39.4858 31.7549 39.7725C30.6521 40.0591 29.496 40.0747 28.3857 39.8184C27.2756 39.562 26.2434 39.0418 25.3779 38.3008C24.4701 38.4392 23.5159 38.5117 22.5352 38.5117C19.4989 38.5117 16.698 37.8117 14.6143 36.6211C12.5634 35.4483 11.0002 33.6598 11 31.4424C11 29.2248 12.5633 27.4355 14.6143 26.2627C16.698 25.0721 19.5005 24.3721 22.5352 24.3721ZM29.9766 28.0928C28.6939 28.0929 27.4637 28.6028 26.5566 29.5098C25.6495 30.4169 25.1396 31.6478 25.1396 32.9307C25.1397 34.2134 25.6496 35.4435 26.5566 36.3506C27.4637 37.2576 28.6938 37.7675 29.9766 37.7676C31.2595 37.7676 32.4903 37.2577 33.3975 36.3506C34.3045 35.4435 34.8144 34.2134 34.8145 32.9307C34.8145 31.6478 34.3046 30.4169 33.3975 29.5098C32.4903 28.6027 31.2595 28.0928 29.9766 28.0928ZM22.5352 26.6045C19.8159 26.6045 17.4085 27.2377 15.7207 28.2021C14.0019 29.1844 13.2324 30.3709 13.2324 31.4424C13.2326 32.5139 14.0019 33.7004 15.7207 34.6826C17.4085 35.6471 19.8159 36.2793 22.5352 36.2793C22.9389 36.2793 23.3357 36.2651 23.7256 36.2373C23.2047 35.2521 22.9073 34.1256 22.9072 32.9307C22.9072 31.7509 23.202 30.5892 23.7656 29.5527C24.3292 28.5163 25.1435 27.6374 26.1338 26.9961C25.031 26.7446 23.8165 26.6045 22.5352 26.6045ZM27.9873 29.8154C28.1355 29.8166 28.2827 29.8478 28.4189 29.9062C28.555 29.9647 28.6783 30.0498 28.7812 30.1562L29.9775 31.3516L31.1748 30.1572C31.3864 29.9602 31.666 29.8533 31.9551 29.8584C32.2442 29.8635 32.5201 29.9802 32.7246 30.1846C32.9291 30.389 33.0466 30.665 33.0518 30.9541C33.0569 31.2433 32.9491 31.5237 32.752 31.7354L31.5566 32.9307L32.749 34.125C32.9524 34.3354 33.0648 34.6176 33.0625 34.9102C33.0601 35.2028 32.9432 35.4834 32.7363 35.6904C32.5295 35.8974 32.2496 36.0149 31.957 36.0176C31.6643 36.0203 31.3825 35.9073 31.1719 35.7041L29.9766 34.5098L28.7812 35.7031C28.5708 35.9065 28.2888 36.019 27.9961 36.0166C27.7036 36.0142 27.4238 35.8971 27.2168 35.6904C27.0098 35.4837 26.8915 35.2036 26.8887 34.9111C26.886 34.6185 26.9989 34.3356 27.2021 34.125L28.3975 32.9307L27.2031 31.7354C27.0965 31.6325 27.0117 31.5091 26.9531 31.373C26.8946 31.237 26.8637 31.0905 26.8623 30.9424C26.8609 30.7942 26.8893 30.6469 26.9453 30.5098C27.0014 30.3726 27.0838 30.2474 27.1885 30.1426C27.2932 30.0377 27.4185 29.9546 27.5557 29.8984C27.6926 29.8424 27.8394 29.8143 27.9873 29.8154ZM22.5352 8C24.41 8 26.2084 8.7447 27.5342 10.0703C28.86 11.3961 29.6054 13.1945 29.6055 15.0693C29.6055 16.9443 28.86 18.7425 27.5342 20.0684C26.2083 21.3942 24.4102 22.1396 22.5352 22.1396C20.6602 22.1396 18.8619 21.3941 17.5361 20.0684C16.2104 18.7426 15.4658 16.9442 15.4658 15.0693C15.4659 13.1945 16.2104 11.3961 17.5361 10.0703C18.8619 8.74462 20.6603 8.00006 22.5352 8ZM22.5352 10.2324C21.2524 10.2325 20.0223 10.7424 19.1152 11.6494C18.2081 12.5565 17.6983 13.7866 17.6982 15.0693C17.6982 16.3522 18.2081 17.5831 19.1152 18.4902C20.0223 19.3971 21.2524 19.9072 22.5352 19.9072C23.8181 19.9072 25.0489 19.3974 25.9561 18.4902C26.8632 17.5831 27.373 16.3522 27.373 15.0693C27.373 13.7866 26.863 12.5565 25.9561 11.6494C25.0489 10.7423 23.8181 10.2324 22.5352 10.2324Z" fill="url(#paint1_linear_0_1)"/>
</g>
</g>
</g>
</g>
</g>
<defs>
<linearGradient id="paint0_linear_0_1" x1="17.8029" y1="11.5" x2="212.236" y2="39.3672" gradientUnits="userSpaceOnUse">
<stop stop-color="#007CB7"/>
<stop offset="1" stop-color="#07ABF8"/>
</linearGradient>
<linearGradient id="paint1_linear_0_1" x1="13.2722" y1="13.9999" x2="25.1747" y2="14.5383" gradientUnits="userSpaceOnUse">
<stop stop-color="#007CB7"/>
<stop offset="1" stop-color="#07ABF8"/>
</linearGradient>
</defs>
</svg>
